<?xml version="1.0" encoding="utf-8"?>
<!-- Generator: Adobe Illustrator 22.0.1, SVG Export Plug-In . SVG Version: 6.00 Build 0)  -->
<svg version="1.1" id="Layer_1" xmlns="http://www.w3.org/2000/svg" xmlns:xlink="http://www.w3.org/1999/xlink" x="0px" y="0px"
	 viewBox="0 0 250 250" style="enable-background:new 0 0 250 250;" xml:space="preserve">
<style type="text/css">
	.st0{display:none;}
	.st1{display:inline;}
	.st2{fill:#0099CC;}
	.st3{fill:#008A23;}
</style>
<g id="Layer_1_1_" class="st0">
	<g class="st1">
		<path class="st2" d="M67,108.4c-2.3,0-4.4-0.4-6.4-1.2c-1.9-0.8-3.6-1.9-5-3.4s-2.5-3.2-3.3-5.3c-0.8-2-1.2-4.3-1.2-6.8
			s0.4-4.8,1.2-6.8s1.9-3.8,3.3-5.3c1.4-1.5,3.1-2.6,5-3.4S64.7,75,67,75c3.4,0,6.4,0.6,9,1.8l-0.6,5.1c-3.4-1.2-6.2-1.8-8.4-1.8
			c-1.6,0-3,0.3-4.3,0.8c-1.2,0.6-2.3,1.4-3.1,2.4c-0.9,1-1.5,2.2-1.9,3.6s-0.6,3-0.6,4.7s0.2,3.3,0.6,4.7c0.4,1.4,1.1,2.6,1.9,3.6
			c0.9,1,1.9,1.8,3.1,2.4c1.2,0.6,2.7,0.8,4.3,0.8c2.3,0,5.1-0.6,8.4-1.8l0.6,5.1C73.4,107.8,70.4,108.4,67,108.4z"/>
		<path class="st2" d="M78.3,96.5c0-1.6,0.3-3.2,0.8-4.6s1.3-2.7,2.3-3.7c1-1.1,2.2-1.9,3.6-2.5s3-0.9,4.7-0.9s3.3,0.3,4.7,0.9
			c1.4,0.6,2.6,1.4,3.6,2.5s1.8,2.3,2.3,3.7c0.5,1.4,0.8,3,0.8,4.6s-0.3,3.2-0.8,4.6s-1.3,2.7-2.3,3.7c-1,1.1-2.2,1.9-3.6,2.5
			s-3,0.9-4.7,0.9c-1.8,0-3.4-0.3-4.8-0.9s-2.6-1.4-3.6-2.5s-1.8-2.3-2.3-3.7C78.5,99.7,78.3,98.1,78.3,96.5z M83.6,96.4
			c0,2.3,0.5,4.1,1.6,5.4s2.6,2,4.5,2s3.4-0.7,4.5-2s1.6-3.1,1.6-5.4s-0.5-4.1-1.6-5.4s-2.6-2-4.5-2s-3.4,0.7-4.5,2
			C84.1,92.4,83.6,94.2,83.6,96.4z"/>
		<path class="st2" d="M139.7,107.8h-5.2V95.2c0-2.1-0.4-3.7-1.1-4.7c-0.7-1-1.9-1.5-3.5-1.5c-3.3,0-4.9,1.7-4.9,5v13.8h-5.2V95.5
			c0-2.5-0.4-4.2-1.1-5.1c-0.8-0.9-2-1.4-3.7-1.4c-2.1,0-3.7,0.7-4.8,2.2v16.5H105V85.1h4.2l0.4,2c1.8-1.6,3.8-2.4,6.1-2.4
			c3.2,0,5.6,1.3,7.2,3.8c0.5-1,1.5-1.9,2.9-2.7c1.4-0.7,3-1.1,4.9-1.1c3,0,5.2,0.9,6.7,2.8s2.3,4.4,2.3,7.8V107.8z"/>
		<path class="st2" d="M150.2,81.2H145v-5.3h5.2V81.2z M150.2,107.8H145V85.1h5.2V107.8z"/>
		<path class="st2" d="M175.8,107.8h-5.2V95.5c0-2.2-0.4-3.9-1.2-4.9s-2-1.6-3.8-1.6c-2.1,0-3.8,0.7-4.9,2.2v16.5h-5.2V85.1h4.7
			l0.2,1.7c1.8-1.4,3.7-2.1,5.8-2.1c6.4,0,9.5,3.6,9.5,10.8L175.8,107.8L175.8,107.8z"/>
		<path class="st2" d="M190.1,119.2c-1.8,0-3.3-0.2-4.7-0.5c-1.3-0.4-2.5-0.9-3.3-1.5c-0.9-0.6-1.6-1.3-2-2.1
			c-0.5-0.8-0.7-1.7-0.7-2.6c0-2.2,1.3-3.9,3.8-5.1c-1.4-0.8-2.1-1.8-2.1-3.2c0-1.4,0.8-2.4,2.4-3.2c-2.4-1.7-3.6-4.1-3.6-7.4
			c0-1.3,0.2-2.5,0.6-3.6c0.4-1.1,1-2.1,1.8-2.9s1.8-1.4,2.9-1.9s2.4-0.7,3.9-0.7c2,0,3.8,0.5,5.3,1.5c1.5-0.7,3.2-1.1,5.1-1.1h1.1
			l-0.4,3.3h-1.7c-0.5,0-1.1,0-1.7,0.1c1.1,1.5,1.6,3.2,1.6,5.1c0,1.2-0.2,2.4-0.6,3.4c-0.4,1.1-1,2-1.8,2.9
			c-0.8,0.8-1.8,1.5-2.9,1.9c-1.1,0.5-2.4,0.7-3.9,0.7c-0.9,0-1.8-0.1-2.7-0.3c-0.5,0.2-0.7,0.5-0.7,0.9c0,0.3,0.1,0.5,0.3,0.7
			s0.5,0.4,1,0.5c0.5,0.2,1.1,0.3,1.9,0.4c0.8,0.1,1.8,0.3,2.9,0.4c1,0.2,2,0.4,3.1,0.6s2,0.6,2.9,1.1s1.6,1.1,2.2,1.9
			c0.6,0.8,0.9,1.8,1,3.1c0,2.2-1,4-2.9,5.3C196.3,118.6,193.6,119.2,190.1,119.2z M190.3,109.1l-3.2-0.5c-1,0.3-1.8,0.7-2.4,1.3
			c-0.6,0.6-0.9,1.3-0.9,2.1c0,1,0.5,1.9,1.6,2.5s2.6,0.9,4.5,0.9s3.5-0.3,4.6-0.9c1.2-0.6,1.8-1.4,1.8-2.4c0-0.9-0.5-1.5-1.6-2
			C193.8,109.7,192.3,109.4,190.3,109.1z M189.1,88.6c-1.5,0-2.6,0.5-3.4,1.4c-0.8,0.9-1.2,2.1-1.2,3.7s0.4,2.8,1.2,3.7
			c0.8,0.9,1.9,1.4,3.4,1.4s2.6-0.5,3.4-1.4c0.8-0.9,1.2-2.2,1.2-3.7c0-1.6-0.4-2.8-1.2-3.7C191.7,89.1,190.6,88.6,189.1,88.6z"/>
		<path class="st2" d="M80.9,163.3c-2.3,0-4.4-0.2-6.2-0.6c-1.9-0.4-3.3-1-4.3-1.6l0.7-6.2c1,0.9,2.4,1.7,4.1,2.3s3.7,0.9,5.9,0.9
			c4.2,0,6.3-1.3,6.3-3.9c0-1-0.3-1.8-0.9-2.5s-1.3-1.3-2.1-1.7c-0.8-0.5-1.7-0.8-2.5-1.1c-0.9-0.3-1.6-0.5-2.1-0.7
			c-1.2-0.4-2.4-0.8-3.5-1.2c-1.2-0.4-2.2-1-3.2-1.6c-0.9-0.6-1.7-1.4-2.2-2.4c-0.6-1-0.8-2.2-0.8-3.6c0-1.1,0.2-2.2,0.6-3.3
			s1-2.1,1.9-3.1s2.1-1.7,3.6-2.3s3.3-0.9,5.5-0.9c1,0,2,0.1,3,0.2c1,0.1,2,0.3,2.9,0.5s1.7,0.5,2.5,0.8c0.7,0.3,1.3,0.6,1.8,0.8
			l-0.5,5.6c-3.6-1.9-6.7-2.8-9.3-2.8c-0.8,0-1.6,0.1-2.3,0.2c-0.7,0.1-1.4,0.4-2,0.7s-1.1,0.7-1.4,1.2c-0.4,0.5-0.5,1.1-0.5,1.7
			c0,0.9,0.3,1.7,0.9,2.2s1.4,1,2.5,1.4s2.3,0.8,3.7,1.3c1.4,0.4,3,1,4.7,1.7c0.6,0.2,1.3,0.6,2,1s1.4,1,2,1.6
			c0.6,0.7,1.1,1.4,1.5,2.3c0.4,0.9,0.6,1.9,0.6,3.1c0,0.9-0.1,1.9-0.3,3.1c-0.2,1.1-0.8,2.2-1.6,3.2c-0.8,1-2.1,1.8-3.7,2.5
			C86,162.9,83.8,163.3,80.9,163.3z"/>
		<path class="st2" d="M96.1,151.3c0-1.6,0.3-3.2,0.8-4.6c0.5-1.4,1.3-2.7,2.3-3.7c1-1.1,2.2-1.9,3.6-2.5s3-0.9,4.7-0.9
			s3.3,0.3,4.7,0.9c1.4,0.6,2.6,1.4,3.6,2.5s1.8,2.3,2.3,3.7s0.8,3,0.8,4.6s-0.3,3.2-0.8,4.6c-0.5,1.4-1.3,2.7-2.3,3.7
			c-1,1.1-2.2,1.9-3.6,2.5s-3,0.9-4.7,0.9c-1.8,0-3.4-0.3-4.8-0.9c-1.4-0.6-2.6-1.4-3.6-2.5s-1.8-2.3-2.3-3.7
			C96.3,154.5,96.1,153,96.1,151.3z M101.4,151.3c0,2.3,0.5,4.1,1.6,5.4c1.1,1.3,2.6,2,4.5,2s3.4-0.7,4.5-2s1.6-3.1,1.6-5.4
			c0-2.3-0.5-4.1-1.6-5.4c-1.1-1.3-2.6-2-4.5-2s-3.4,0.7-4.5,2C101.9,147.2,101.4,149,101.4,151.3z"/>
		<path class="st2" d="M121.6,151.3c0-1.6,0.3-3.2,0.8-4.6c0.5-1.4,1.3-2.7,2.3-3.7c1-1.1,2.2-1.9,3.6-2.5c1.4-0.6,3-0.9,4.7-0.9
			s3.3,0.3,4.7,0.9c1.4,0.6,2.6,1.4,3.6,2.5s1.8,2.3,2.3,3.7s0.8,3,0.8,4.6s-0.3,3.2-0.8,4.6c-0.5,1.4-1.3,2.7-2.3,3.7
			c-1,1.1-2.2,1.9-3.6,2.5c-1.4,0.6-3,0.9-4.7,0.9c-1.8,0-3.4-0.3-4.8-0.9c-1.4-0.6-2.6-1.4-3.6-2.5s-1.8-2.3-2.3-3.7
			C121.8,154.5,121.6,153,121.6,151.3z M126.9,151.3c0,2.3,0.5,4.1,1.6,5.4c1.1,1.3,2.6,2,4.5,2s3.4-0.7,4.5-2s1.6-3.1,1.6-5.4
			c0-2.3-0.5-4.1-1.6-5.4c-1.1-1.3-2.6-2-4.5-2s-3.4,0.7-4.5,2C127.4,147.2,126.9,149,126.9,151.3z"/>
		<path class="st2" d="M168.6,162.6h-5.2v-12.3c0-2.2-0.4-3.9-1.2-4.9s-2-1.6-3.8-1.6c-2.1,0-3.8,0.7-4.9,2.2v16.5h-5.2v-22.7h4.7
			l0.2,1.7c1.8-1.4,3.7-2.1,5.8-2.1c6.4,0,9.5,3.6,9.5,10.8L168.6,162.6L168.6,162.6z"/>
		<path class="st2" d="M179.6,128.4l-1.1,25.1H175l-1.1-25.1H179.6z M179.3,162.6h-5.1v-5.1h5.1V162.6z"/>
	</g>
</g>
<g id="Layer_2_1_">
	<g>
		<path class="st3" d="M67.3,86.1c0.1-0.4,0.1-0.9,0.1-1.6s-0.1-1.3-0.4-1.9s-0.6-1-1.1-1.4c-0.8-0.6-2.1-0.8-3.7-0.8
			c-1.6,0-3.1,0.3-4.4,0.9c-1.3,0.6-2.3,1.4-3.2,2.5c-1.7,2.1-2.6,5.1-2.6,8.8c0,3.5,0.9,6.3,2.6,8.4c1.8,2.2,4.2,3.3,7.3,3.3
			c3,0,5.4-0.7,7-2c0.5-0.4,1-0.8,1.4-1.3c0.4,0.1,0.7,0.5,1,1c0.1,0.2,0.1,0.5,0.1,0.8s-0.2,0.8-0.7,1.4s-1.1,1.2-2,1.8
			c-2.1,1.4-4.6,2.1-7.6,2.1c-4.2,0-7.6-1.3-10.1-3.8s-3.7-5.9-3.7-10.1c0-2.6,0.4-4.9,1.2-7s1.9-3.8,3.4-5.3c1.4-1.5,3.1-2.6,5-3.3
			s3.7-1.2,5.5-1.2c1.8,0,3.2,0.2,4.3,0.4c1.1,0.3,2,0.7,2.7,1.2c1.4,1.1,2.1,2.5,2.1,4.3c0,1.4-0.5,2.3-1.5,2.9
			c-0.3,0.2-0.7,0.3-1.1,0.3C68.2,86.4,67.6,86.3,67.3,86.1z"/>
		<path class="st3" d="M74.5,96.8c0-1.6,0.2-3,0.5-4.3s0.7-2.4,1.3-3.3c0.5-1,1.2-1.8,1.9-2.5s1.5-1.2,2.4-1.7
			c1.7-0.8,3.5-1.3,5.4-1.3c2.5,0,4.7,0.9,6.5,2.8c2,2,2.9,4.7,2.9,8c0,4.4-1.2,7.8-3.6,10.2c-2.1,2.1-4.6,3.1-7.4,3.1
			c-3,0-5.4-1.1-7.3-3.2C75.4,102.8,74.5,100.1,74.5,96.8z M85.6,104.8c0.9,0,1.7-0.2,2.3-0.6c0.7-0.4,1.3-1,1.8-1.7
			c1-1.5,1.4-3.4,1.4-5.8c0-2.6-0.5-4.8-1.5-6.6C88.5,88,86.8,87,84.7,87c-1.7,0-3.1,0.7-4.2,2c-1.1,1.4-1.7,3.4-1.7,5.9
			c0,3.2,0.7,5.7,2.1,7.5C82.2,104,83.7,104.8,85.6,104.8z"/>
		<path class="st3" d="M109.1,107.7c-0.3-0.1-0.7-0.1-1.2-0.1h-6.2c-1.2,0-2.1-0.2-2.4-0.7c-0.1-0.2-0.2-0.4-0.2-0.6
			c0-0.5,0.1-1,0.3-1.2c0.3,0.1,0.7,0.2,1.1,0.2s0.7-0.2,0.9-0.5c0.2-0.3,0.3-0.9,0.3-1.8V90.2c0-1.2-0.2-2-0.7-2.3
			c-0.2-0.1-0.4-0.2-0.7-0.2c-0.3,0-0.5,0-0.7,0.1S99.3,88,99.2,88s-0.2,0-0.3,0c-0.1,0-0.2-0.1-0.2-0.2c-0.2-0.2-0.3-0.4-0.3-0.7
			c0-0.2,0.1-0.5,0.2-0.7c0.2-0.3,0.4-0.5,0.8-0.9c0.4-0.3,0.8-0.6,1.2-0.9c1.1-0.6,2.1-0.9,3.2-0.9c1.2,0,1.9,0.7,2.1,2.2
			c0.1,0.4,0.1,0.9,0.2,1.4c2-1.5,4-2.6,6.1-3.2c0.8-0.2,1.5-0.3,2.3-0.3c3.1,0,5.1,1.2,5.9,3.7c2-1.6,4.1-2.7,6.2-3.3
			c0.8-0.2,1.6-0.3,2.4-0.3s1.6,0.1,2.4,0.3c0.8,0.2,1.4,0.6,2,1.1c1.2,1.1,1.8,2.7,1.8,4.9v13.1c0,1.1,0.4,1.7,1.1,2
			c0.2,0.1,0.5,0.1,0.7,0.2c0.3,0.1,0.5,0.1,0.8,0.2c0.2,0.1,0.4,0.2,0.5,0.2c0.2,0.2,0.3,0.4,0.3,0.8c0,0.5-0.1,0.8-0.3,1.1
			c-0.3-0.1-0.7-0.1-1.2-0.1h-6.2c-1.2,0-2.1-0.2-2.4-0.7c-0.1-0.2-0.2-0.4-0.2-0.6c0-0.5,0.1-1,0.3-1.2c0.3,0.1,0.7,0.2,1,0.2
			c0.4,0,0.7-0.1,0.9-0.4s0.3-0.7,0.3-1.4v-12c0-2.2-0.7-3.5-2-3.7c-0.4-0.1-0.9-0.1-1.4-0.1c-0.6,0-1.2,0.1-1.8,0.2
			s-1.3,0.3-1.8,0.6c-1.1,0.5-2.1,1-3,1.7v13c0,1.1,0.4,1.7,1.1,2c0.2,0.1,0.5,0.1,0.7,0.2c0.3,0.1,0.5,0.1,0.8,0.2
			c0.2,0.1,0.4,0.2,0.5,0.2c0.2,0.2,0.3,0.4,0.3,0.8c0,0.5-0.1,0.8-0.3,1.1c-0.3-0.1-0.7-0.1-1.2-0.1h-6.2c-1.2,0-2.1-0.2-2.4-0.7
			c-0.1-0.2-0.2-0.4-0.2-0.6c0-0.6,0.1-1,0.3-1.2c0.3,0.1,0.7,0.2,1.1,0.2s0.7-0.1,0.9-0.4c0.2-0.3,0.3-0.8,0.3-1.5v-12
			c0-2.2-0.7-3.5-2-3.7c-0.4-0.1-0.9-0.1-1.5-0.1s-1.2,0.1-1.9,0.2c-0.7,0.2-1.3,0.4-1.9,0.6c-1.2,0.5-2.2,1.1-3,1.8v12.9
			c0,1.1,0.4,1.7,1.1,2c0.2,0.1,0.4,0.1,0.7,0.2c0.3,0.1,0.5,0.1,0.8,0.2c0.2,0.1,0.4,0.2,0.5,0.2c0.2,0.2,0.3,0.4,0.3,0.8
			C109.4,107.1,109.3,107.5,109.1,107.7z"/>
		<path class="st3" d="M143.8,107.6c-2,0-3-0.5-3-1.4c0-0.5,0.1-0.8,0.3-1.1c0.3,0.1,0.6,0.2,0.9,0.2c1.2,0,1.8-0.8,1.8-2.3V89.9
			c0-0.9-0.1-1.5-0.4-1.9c-0.3-0.4-0.7-0.5-1.4-0.5c-0.5,0-0.9,0.1-1.3,0.2c-0.2,0-0.4-0.2-0.5-0.5c-0.1-0.4,0-0.7,0.2-0.9
			c0.2-0.3,0.5-0.5,0.9-0.8s0.9-0.5,1.4-0.8c1.1-0.5,2-0.8,2.7-0.8s1.2,0.1,1.6,0.3c0.3,0.2,0.6,0.5,0.8,0.8
			c0.3,0.6,0.4,1.5,0.4,2.8v15.6c0,1,0.4,1.7,1.1,1.9c0.2,0.1,0.4,0.1,0.7,0.2s0.5,0.1,0.8,0.2c0.2,0.1,0.4,0.2,0.5,0.2
			c0.2,0.2,0.3,0.4,0.3,0.8c0,0.5-0.1,0.8-0.3,1.1c-0.3-0.1-0.7-0.1-1.2-0.1L143.8,107.6L143.8,107.6z M145,80.2
			c-0.4,0-0.8-0.1-1.2-0.2s-0.7-0.3-1-0.6c-0.6-0.5-0.9-1.3-0.9-2.2c0-0.9,0.3-1.6,1-2.2s1.4-0.9,2.3-0.9c0.9,0,1.6,0.3,2.2,0.8
			s0.8,1.3,0.8,2.2c0,0.9-0.3,1.6-1,2.2C146.7,79.9,145.9,80.2,145,80.2z"/>
		<path class="st3" d="M164,107.7c-0.3-0.1-0.7-0.1-1.2-0.1h-6.2c-1.2,0-2.1-0.2-2.4-0.7c-0.1-0.2-0.2-0.4-0.2-0.6
			c0-0.5,0.1-1,0.3-1.2c0.3,0.1,0.7,0.2,1.1,0.2s0.7-0.2,0.9-0.5s0.3-0.9,0.3-1.8V90.2c0-1.2-0.2-2-0.7-2.3
			c-0.2-0.1-0.4-0.2-0.7-0.2s-0.5,0-0.7,0.1s-0.3,0.2-0.4,0.2s-0.2,0-0.3,0s-0.2-0.1-0.2-0.2c-0.2-0.2-0.3-0.4-0.3-0.7
			c0-0.2,0.1-0.5,0.2-0.7s0.4-0.5,0.8-0.9s0.8-0.6,1.2-0.9c1.1-0.6,2.1-0.9,3.2-0.9c1.2,0,1.9,0.8,2.1,2.4c0.1,0.5,0.1,1,0.1,1.4
			c1.9-1.6,4-2.8,6.3-3.5c0.8-0.2,1.7-0.4,2.5-0.4s1.6,0.1,2.4,0.3c0.8,0.2,1.4,0.6,2,1.1c1.2,1,1.8,2.7,1.8,4.9v13.2
			c0,1,0.4,1.6,1.1,1.9c0.2,0.1,0.4,0.1,0.7,0.2s0.5,0.1,0.8,0.2c0.2,0.1,0.4,0.2,0.5,0.2c0.2,0.2,0.3,0.4,0.3,0.8
			c0,0.5-0.1,0.8-0.3,1.1c-0.3-0.1-0.7-0.1-1.2-0.1h-6.2c-1.2,0-2.1-0.2-2.4-0.7c-0.1-0.2-0.2-0.4-0.2-0.6c0-0.5,0.1-1,0.3-1.2
			c0.3,0.1,0.6,0.2,0.9,0.2s0.5,0,0.7-0.1s0.3-0.2,0.4-0.4c0.2-0.3,0.3-0.9,0.3-1.8V91.5c0-2.2-0.7-3.5-2-3.7
			c-0.4-0.1-0.9-0.1-1.5-0.1s-1.3,0.1-2,0.3c-0.7,0.2-1.4,0.4-2.1,0.7c-1.2,0.5-2.3,1.2-3.1,2.1v12.6c0,1,0.4,1.6,1.1,1.9
			c0.2,0.1,0.5,0.1,0.7,0.2c0.3,0.1,0.5,0.1,0.8,0.2c0.2,0.1,0.4,0.2,0.5,0.2c0.2,0.2,0.3,0.4,0.3,0.8
			C164.3,107.1,164.2,107.5,164,107.7z"/>
		<path class="st3" d="M188.9,99.8c-0.5,0.5-0.7,1-0.7,1.4s0.1,0.8,0.4,1.1c0.3,0.2,0.6,0.4,1.1,0.6c0.7,0.2,1.4,0.3,2.2,0.3h1.7
			c4.2,0,7,1,8.4,3c0.5,0.8,0.7,1.7,0.7,2.8s-0.2,2-0.5,2.9s-0.9,1.5-1.5,2.2s-1.3,1.2-2.1,1.6s-1.7,0.8-2.6,1.1
			c-1.8,0.6-3.4,0.9-4.9,0.9s-2.9-0.1-4-0.4s-2.2-0.6-3-1.1c-1.9-1.1-2.9-2.7-2.9-4.8c0-1.8,0.9-3.3,2.6-4.7
			c0.5-0.4,1.1-0.8,1.7-1.1c-0.7-0.6-1.1-1.4-1.1-2.4c0-1.5,0.8-2.9,2.3-3.9c-2.3-0.9-3.7-2.4-4.4-4.6c-0.2-0.7-0.3-1.5-0.3-2.4
			s0.1-1.7,0.4-2.5c0.3-0.8,0.7-1.5,1.2-2.1s1.1-1.2,1.7-1.6s1.3-0.9,2.1-1.2c1.5-0.6,3-0.9,4.6-0.9c2.6,0,4.8,0.7,6.3,2
			c0.2-0.7,0.3-1.3,0.3-2s-0.1-1.2-0.4-1.7c0.5-0.6,1.3-0.9,2.3-0.9c0.6,0,1,0.2,1.4,0.5c0.7,0.6,1,1.1,1,1.7s-0.1,1-0.3,1.4
			s-0.4,0.8-0.7,1.2c-0.5,0.7-1.1,1.3-1.9,1.8c0.5,1,0.8,2.1,0.8,3.4s-0.3,2.5-0.8,3.6c-0.6,1.1-1.3,2-2.3,2.8
			c-2,1.6-4.4,2.4-7.2,2.4C189.9,99.9,189.4,99.9,188.9,99.8z M187.9,106.7c-1.7,1.2-2.6,2.5-2.6,3.9c0,1.3,0.7,2.2,2.2,2.9
			c1.2,0.5,2.6,0.8,4.4,0.8c1.6,0,3-0.3,4.4-0.8c1.8-0.7,2.6-1.8,2.6-3.4c0-2.1-1.7-3.1-5.1-3.1h-1.7
			C190.4,107.1,189,107,187.9,106.7z M187.9,95.7c0.5,0.5,1,0.8,1.6,1s1.2,0.3,1.9,0.3s1.3-0.1,1.9-0.3s1.1-0.5,1.6-0.9
			c1-0.8,1.4-2,1.4-3.4c0-1.6-0.4-3-1.3-4.1c-1-1.2-2.3-1.8-4.1-1.8c-2.2,0-3.6,0.9-4.3,2.7c-0.2,0.6-0.3,1.4-0.3,2.3
			s0.1,1.7,0.4,2.4C187.1,94.6,187.5,95.2,187.9,95.7z"/>
		<path class="st3" d="M86.6,153.9c0-3-1.1-4.9-3.2-5.6c-0.7-0.3-1.6-0.4-2.6-0.4s-1.8,0.1-2.5,0.3s-1.3,0.5-1.8,0.9
			c-1,0.8-1.4,1.8-1.4,3c0,1.9,1.4,3.5,4.2,4.9l2.4,1.2c1.2,0.5,2.3,1.1,3.4,1.7c1.1,0.6,2.1,1.2,2.9,1.9c1.9,1.6,2.8,3.6,2.8,5.9
			c0,2.5-1.1,4.5-3.3,6.1c-2,1.4-4.6,2.1-7.7,2.1c-2.4,0-4.6-0.4-6.5-1.2c-1.4-0.5-2.4-1.3-2.9-2.3c-0.3-0.5-0.4-1.1-0.4-1.9
			c0-1.5,0.4-2.8,1.1-4.1c0.2-0.3,0.6-0.4,1-0.4c0.8,0,1.3,0.2,1.4,0.7c0.2,2.3,0.9,3.9,2.1,4.9s2.9,1.5,5.1,1.5
			c2.5,0,4.2-0.8,5.1-2.5c0.3-0.6,0.4-1.2,0.4-2s-0.2-1.5-0.6-2.1s-1-1.2-1.7-1.7c-1.1-0.8-2.5-1.5-4.2-2.3s-3.1-1.4-4.1-1.9
			s-1.8-1.2-2.6-1.9c-1.6-1.6-2.4-3.5-2.4-5.9s1-4.3,3.1-5.7c2-1.4,4.5-2.1,7.6-2.1c3.9,0,6.5,0.8,7.7,2.4c0.4,0.6,0.7,1.4,0.7,2.3
			s-0.1,1.8-0.3,2.5s-0.3,1.2-0.5,1.4c-0.3,0.4-0.8,0.5-1.5,0.5C86.9,154.4,86.6,154.3,86.6,153.9z"/>
		<path class="st3" d="M94.4,164.8c0-1.6,0.2-3,0.5-4.3s0.7-2.4,1.3-3.3s1.2-1.8,1.9-2.5s1.5-1.2,2.4-1.7c1.7-0.8,3.5-1.3,5.4-1.3
			c2.5,0,4.7,0.9,6.5,2.8c2,2,2.9,4.7,2.9,8c0,4.4-1.2,7.8-3.6,10.2c-2.1,2.1-4.6,3.1-7.4,3.1c-3,0-5.4-1.1-7.3-3.2
			C95.3,170.8,94.4,168.1,94.4,164.8z M105.5,172.8c0.9,0,1.7-0.2,2.3-0.6c0.7-0.4,1.3-1,1.8-1.7c1-1.5,1.4-3.4,1.4-5.8
			c0-2.6-0.5-4.8-1.5-6.6c-1.1-2.1-2.8-3.1-4.9-3.1c-1.7,0-3.1,0.7-4.2,2c-1.1,1.4-1.7,3.4-1.7,5.9c0,3.2,0.7,5.7,2.1,7.5
			C102.1,172,103.7,172.8,105.5,172.8z"/>
		<path class="st3" d="M118.3,164.8c0-1.6,0.2-3,0.5-4.3s0.7-2.4,1.3-3.3s1.2-1.8,1.9-2.5s1.5-1.2,2.4-1.7c1.7-0.8,3.5-1.3,5.4-1.3
			c2.5,0,4.7,0.9,6.5,2.8c2,2,2.9,4.7,2.9,8c0,4.4-1.2,7.8-3.6,10.2c-2.1,2.1-4.6,3.1-7.4,3.1c-3,0-5.4-1.1-7.3-3.2
			C119.2,170.8,118.3,168.1,118.3,164.8z M129.4,172.8c0.9,0,1.7-0.2,2.3-0.6c0.7-0.4,1.3-1,1.8-1.7c1-1.5,1.4-3.4,1.4-5.8
			c0-2.6-0.5-4.8-1.5-6.6c-1.1-2.1-2.8-3.1-4.9-3.1c-1.7,0-3.1,0.7-4.2,2c-1.1,1.4-1.7,3.4-1.7,5.9c0,3.2,0.7,5.7,2.1,7.5
			C126,172,127.5,172.8,129.4,172.8z"/>
		<path class="st3" d="M152.9,175.7c-0.3-0.1-0.7-0.1-1.2-0.1h-6.2c-1.2,0-2.1-0.2-2.4-0.7c-0.1-0.2-0.2-0.4-0.2-0.6
			c0-0.5,0.1-1,0.3-1.2c0.3,0.1,0.7,0.2,1.1,0.2c0.4,0,0.7-0.2,0.9-0.5s0.3-0.9,0.3-1.8v-12.8c0-1.2-0.2-2-0.7-2.3
			c-0.2-0.1-0.4-0.2-0.7-0.2s-0.5,0-0.7,0.1s-0.3,0.2-0.4,0.2c-0.1,0-0.2,0-0.3,0s-0.2-0.1-0.2-0.2c-0.2-0.2-0.3-0.4-0.3-0.7
			s0.1-0.5,0.2-0.7c0.2-0.3,0.4-0.5,0.8-0.9c0.4-0.3,0.8-0.6,1.2-0.9c1.1-0.6,2.1-0.9,3.2-0.9c1.2,0,1.9,0.8,2.1,2.4
			c0.1,0.5,0.1,1,0.1,1.4c1.9-1.6,4-2.8,6.3-3.5c0.8-0.2,1.7-0.4,2.5-0.4s1.6,0.1,2.4,0.3s1.4,0.6,2,1.1c1.2,1,1.8,2.7,1.8,4.9v13.2
			c0,1,0.4,1.6,1.1,1.9c0.2,0.1,0.4,0.1,0.7,0.2c0.3,0.1,0.5,0.1,0.8,0.2c0.2,0.1,0.4,0.2,0.5,0.2c0.2,0.2,0.3,0.4,0.3,0.8
			c0,0.5-0.1,0.8-0.3,1.1c-0.3-0.1-0.7-0.1-1.2-0.1h-6.2c-1.2,0-2.1-0.2-2.4-0.7c-0.1-0.2-0.2-0.4-0.2-0.6c0-0.5,0.1-1,0.3-1.2
			c0.3,0.1,0.6,0.2,0.9,0.2c0.3,0,0.5,0,0.7-0.1s0.3-0.2,0.4-0.4c0.2-0.3,0.3-0.9,0.3-1.8v-11.5c0-2.2-0.7-3.5-2-3.7
			c-0.4-0.1-0.9-0.1-1.5-0.1s-1.3,0.1-2,0.3s-1.4,0.4-2.1,0.7c-1.2,0.5-2.3,1.2-3.1,2.1v12.6c0,1,0.4,1.6,1.1,1.9
			c0.2,0.1,0.5,0.1,0.7,0.2c0.3,0.1,0.5,0.1,0.8,0.2s0.4,0.2,0.5,0.2c0.2,0.2,0.3,0.4,0.3,0.8C153.2,175.1,153.1,175.5,152.9,175.7z
			"/>
		<path class="st3" d="M171.3,172.8c0-0.9,0.3-1.7,0.9-2.3s1.4-0.9,2.3-0.9c1.5,0,2.5,0.7,3.1,2c0.2,0.4,0.3,0.8,0.3,1.3
			c0,0.9-0.3,1.7-0.9,2.3c-0.6,0.6-1.4,0.9-2.4,0.9c-0.9,0-1.7-0.3-2.3-0.9S171.3,173.7,171.3,172.8z M176,165.3
			c0,0.3-0.5,0.4-1.5,0.4s-1.4-0.2-1.4-0.5s0-0.8-0.1-1.6c-0.2-2.5-0.3-4.4-0.4-5.6l-0.7-10.5c-0.1-2.1-0.2-3.5-0.2-4
			c0-0.4,1.1-0.8,3.3-1.3c0.8-0.2,1.5-0.3,2-0.3s0.7,0.1,0.7,0.2c0,0.1,0,0.5-0.1,1.1l-1.5,19.8C176.1,164,176.1,164.8,176,165.3z"
			/>
	</g>
</g>
</svg>
