<svg
    version="1.1"
    id="Logo"
    xmlns="http://www.w3.org/2000/svg"
    xmlns:xlink="http://www.w3.org/1999/xlink"
    x="0px"
    y="0px"
    viewBox="0 0 389.9 285.1"
    style="enable-background:new 0 0 389.9 285.1;"
    xml:space="preserve">
    <style
        type="text/css">
	    .st0{fill:#0099CC;}
    </style>
    <path
        id="D"
        class="st0"
        d="M390.5,138.6c0,21.5-3.3,43.1-10.8,63.2c-3.7,10-8.6,19.7-14.5,28.6c-1.5,2.2-3.1,4.4-4.7,6.5
	c-0.7,0.9-1.5,2.2-2.4,3c-0.7,0.6-2.2,0.5-3.1,0.6c-2.6,0.2-5.3,0.2-7.9,0.3c-12.2,0.4-24.5,0.6-36.7,0.8
	c15.9-9.8,27.2-26.1,33.8-43.3c6.3-16.4,9.1-34.1,9.5-51.6c0.4-17.2-1.1-34.7-5.8-51.3c-4.8-16.9-13.3-33-26.3-45
	c-13.9-12.8-32.3-19.1-50.9-21.2c-2.5-0.3-5-0.5-7.6-0.7c5.6-8.4,5.4-20.4-0.6-28.4c15.1,0.7,30.2,2.7,44.7,7
	c14.4,4.3,27.9,11.5,39.3,21.3c10.2,8.8,18.5,19.5,24.9,31.3c6.2,11.4,10.8,23.6,13.9,36.2c3.1,12.5,4.8,25.4,5.2,38.3
	C390.4,135.5,390.5,137.1,390.5,138.6z"/>
    <path
        id="L"
        class="st0"
        d="M389.6,267.7c0,4.8-1.2,10-4.8,13.5c-3.6,3.6-8.2,3.8-13,3.7c-4.8-0.1-9.6-0.5-14.5-0.6
	c-6.6-0.2-13.1-0.4-19.7-0.6c-8.1-0.3-16.1-0.5-24.2-0.7c-6.4-0.2-12.8-0.4-19.2-0.5c-11.2-0.2-22.5-0.1-33.7-0.2
	c-14,0-28-0.1-41.9-0.1c-11.9,0-23.8,0.3-35.7,0.5c-3.1,0.1-6.2,0.1-9.4,0.1c-2.1,0-4.9,0.1-6.6-1.3c-1-0.9-1.5-2.2-1.7-3.5
	c0-0.2-0.2-0.8-0.1-1c0.1-0.2,0.7-0.4,0.8-0.5c0.6-0.4,1.3-0.8,1.9-1.3c2.5-1.6,4.8-3.4,7.1-5.2c9-7.2,16.8-15.8,22.9-25.6
	c1.5-2.4,2.9-4.8,4.2-7.4c0.6,4,1.8,8.3,4.8,11.2c3,2.9,7.3,3.9,11.3,4.4c4.7,0.6,9.4,0.5,14.1,0.5c9.7,0,19.4,0,29.1,0
	c3,0,4.8,0,10.3,0c8.4,0,16.8,0.1,25.1-0.2c12.5-0.5,25.1-0.5,37.6-0.8c5.8-0.1,11.6-0.3,17.3-0.5c5.6-0.2,11-1.1,16.6-1.4
	c5.1-0.3,10.4-0.7,14.7,2.5c3.6,2.6,5.6,6.9,6.2,11.3C389.5,265.2,389.6,266.5,389.6,267.7z"/>
    <path
        id="J"
        class="st0"
        d="M256,14.5c0,7.2-5.2,13.5-12.6,13.6c-8.3,0.1-16.3-3.1-24.6-1.6c-3.9,0.7-7.5,2.4-10.1,5.4
	c-2.3,2.7-3.6,6-4.4,9.5c-1.2,5.2-1.5,10.6-1.7,15.9c-0.5,11.1-0.2,22.2-0.2,33.3c0,6.9,0,13.8,0,20.6c0,10.1,0.2,20.1,0.4,30.2
	c0.3,16,0.4,32.1-0.9,48c-1.1,14.4-2.8,29.5-9.5,42.5c-6.5,12.7-16.1,23.7-27.6,32c-12.8,9.2-27.7,15.3-43.2,18.2
	c-13.5,2.6-27.3,2.9-40.9,1.1c-11.2-1.4-22.2-4.3-32.6-8.8c-9.8-4.3-19-10.2-26.6-17.7c-7.6-7.6-13.5-16.8-17.1-27
	c-3.9-11.2-5.2-23.7-3.7-35.5c1.5-11.3,5.8-22.1,12.9-31c6.9-8.7,16.3-15.3,26.9-18.7c11-3.5,23.4-4,34.4-0.3
	c10.2,3.5,18.8,11,21.9,21.5c1.6,5.6,2,11.8,0.1,17.4c-1.8,5.6-5.6,10.8-10.6,13.9c-5,3.2-11,3.8-16.7,2.1
	c-5.4-1.7-10.5-5.5-12.6-10.9c-2.2-5.7-0.6-12.6,4.7-16.1c-2.4-1.6-4.6-2.1-7.5-2c-2.2,0.1-4.3,0.7-6.3,1.8c-4.2,2.2-7.3,6-9.6,10
	c-2.4,4.2-4.1,8.8-4.9,13.6c-0.9,4.9-0.6,10.1,0.3,15c1.8,10.2,6.6,19.6,13.8,27c7.1,7.3,16.2,12.6,26,15.6
	c10.4,3.3,21.3,3.9,32.1,2.8c11.2-1.1,22.5-4.2,32.1-10.3c10.5-6.6,18-16.5,22.8-27.9c5.2-12.4,7-25.9,7.6-39.3
	c0.4-8.3,0.3-16.6,0.3-24.9c0-5.4,0-10.8,0-16.1c0-7.7,0-15.5,0-23.2c0-6.3,0-12.7,0-19c0-4.6,0-9.1,0-13.7
	c0.1-11.1,0.2-22.3-1-33.4c-0.5-4.6-1.2-9.5-3.5-13.6c-2.3-4-6.1-6.7-10.6-7.8c-6.4-1.6-12.8-0.2-19.1,0.7c-3.2,0.5-6.8,1-10,0.2
	c-2.4-0.6-4.6-1.9-6.3-3.8c-3.5-4-4.3-10.1-2.2-14.9c2-4.7,6.6-7.7,11.5-8.6c2.8-0.5,5.8-0.3,8.7-0.1c3.2,0.2,6.4,0.4,9.6,0.8
	c6.6,0.7,13.2,1.7,19.8,2.4c7.3,0.8,14.6,1.2,22,1c7.3-0.2,14.6-1,21.9-1.9c7.3-0.9,14.6-1.9,22-2.3c5.9-0.3,12.1-0.5,17.5,2.3
	C253.1,4.9,256,9.2,256,14.5z"/>
</svg>
