<?xml version="1.0" encoding="utf-8"?>
<!-- Generator: Adobe Illustrator 22.0.1, SVG Export Plug-In . SVG Version: 6.00 Build 0)  -->
<svg version="1.1" id="Layer_1" xmlns="http://www.w3.org/2000/svg" xmlns:xlink="http://www.w3.org/1999/xlink" x="0px" y="0px"
	 viewBox="0 0 100 88.8" style="enable-background:new 0 0 100 88.8;" xml:space="preserve">
<style type="text/css">
	.st0{fill:#FFFFFF;}
</style>
<g>
	<path class="st0" d="M100,43.6c0,6.7-1,12.7-3,18c-1.2,3.2-2.7,6.1-4.4,8.7H74.1c1.7-1.2,3.2-2.6,4.5-4.1c2.4-2.8,4.2-6.2,5.5-10
		c1.2-3.9,1.8-8.1,1.8-12.6c0-4.6-0.6-8.8-1.9-12.7s-3.1-7.2-5.6-9.9c-2.5-2.8-5.5-4.9-9-6.5s-7.6-2.3-12.1-2.3h-2.5V0h2.5
		c7.1,0,13.2,1.1,18.5,3.4s9.7,5.4,13.3,9.4c3.6,3.9,6.3,8.6,8.1,13.9C99.1,32,100,37.6,100,43.6z"/>
	<path class="st0" d="M100,75.3v12.2H41.8c3.1-2.3,5.5-5.1,7.4-8.5c0.7-1.2,1.2-2.4,1.8-3.7c0.9-2.2,1.6-4.6,2.2-7.1v7.1H100z"/>
	<path class="st0" d="M50,0v44.5c0,6.7-0.3,12.7-1,18.2c-0.6,4.8-1.7,9-3.5,12.6c-0.2,0.5-0.4,0.9-0.7,1.4c-1.4,2.6-3.3,4.7-5.6,6.5
		c-0.8,0.6-1.6,1.2-2.5,1.7c-0.4,0.3-0.9,0.5-1.3,0.8c-0.4,0.2-0.7,0.4-1.1,0.5c-1.1,0.5-2.4,0.9-3.7,1.3c-3.3,0.9-7.2,1.4-11.7,1.4
		c-7.4,0-13.7-1.8-19-5.4l3.3-11.3c1.4,1,3.5,1.9,6.2,2.9c2.7,0.9,5.9,1.4,9.4,1.4c2.9,0,5.4-0.4,7.4-1.2c0.6-0.2,1.2-0.5,1.7-0.8
		c2.3-1.4,4-3.4,5.2-6c0.4-1,0.8-2.1,1.2-3.2c0.6-2,0.9-4.2,1.2-6.7c0.4-4,0.6-8.6,0.6-13.9V0H50z"/>
</g>
</svg>
