<?xml version="1.0" encoding="utf-8"?>
<!-- Generator: Adobe Illustrator 22.0.1, SVG Export Plug-In . SVG Version: 6.00 Build 0)  -->
<svg version="1.1" id="Layer_1" xmlns="http://www.w3.org/2000/svg" xmlns:xlink="http://www.w3.org/1999/xlink" x="0px" y="0px"
	 viewBox="0 0 250 250" style="enable-background:new 0 0 250 250;" xml:space="preserve">
<style type="text/css">
	.st0{fill:#0099CC;}
</style>
<g>
	<path class="st0" d="M67,108.4c-2.3,0-4.4-0.4-6.4-1.2c-1.9-0.8-3.6-1.9-5-3.4c-1.4-1.5-2.5-3.2-3.3-5.3c-0.8-2-1.2-4.3-1.2-6.8
		c0-2.5,0.4-4.8,1.2-6.8c0.8-2,1.9-3.8,3.3-5.3c1.4-1.5,3.1-2.6,5-3.4c1.9-0.8,4.1-1.2,6.4-1.2c3.4,0,6.4,0.6,9,1.8l-0.6,5.1
		c-3.4-1.2-6.2-1.8-8.4-1.8c-1.6,0-3,0.3-4.3,0.8c-1.2,0.6-2.3,1.4-3.1,2.4c-0.9,1-1.5,2.2-1.9,3.6c-0.4,1.4-0.6,3-0.6,4.7
		c0,1.7,0.2,3.3,0.6,4.7c0.4,1.4,1.1,2.6,1.9,3.6c0.9,1,1.9,1.8,3.1,2.4c1.2,0.6,2.7,0.8,4.3,0.8c2.3,0,5.1-0.6,8.4-1.8l0.6,5.1
		C73.4,107.8,70.4,108.4,67,108.4z"/>
	<path class="st0" d="M78.3,96.5c0-1.6,0.3-3.2,0.8-4.6c0.5-1.4,1.3-2.7,2.3-3.7c1-1.1,2.2-1.9,3.6-2.5c1.4-0.6,3-0.9,4.7-0.9
		c1.7,0,3.3,0.3,4.7,0.9c1.4,0.6,2.6,1.4,3.6,2.5c1,1.1,1.8,2.3,2.3,3.7c0.5,1.4,0.8,3,0.8,4.6c0,1.6-0.3,3.2-0.8,4.6
		c-0.5,1.4-1.3,2.7-2.3,3.7c-1,1.1-2.2,1.9-3.6,2.5c-1.4,0.6-3,0.9-4.7,0.9c-1.8,0-3.4-0.3-4.8-0.9s-2.6-1.4-3.6-2.5
		c-1-1.1-1.8-2.3-2.3-3.7C78.5,99.7,78.3,98.1,78.3,96.5z M83.6,96.4c0,2.3,0.5,4.1,1.6,5.4c1.1,1.3,2.6,2,4.5,2
		c1.9,0,3.4-0.7,4.5-2c1.1-1.3,1.6-3.1,1.6-5.4c0-2.3-0.5-4.1-1.6-5.4c-1.1-1.3-2.6-2-4.5-2c-1.9,0-3.4,0.7-4.5,2
		C84.1,92.4,83.6,94.2,83.6,96.4z"/>
	<path class="st0" d="M139.7,107.8h-5.2V95.2c0-2.1-0.4-3.7-1.1-4.7c-0.7-1-1.9-1.5-3.5-1.5c-3.3,0-4.9,1.7-4.9,5v13.8h-5.2V95.5
		c0-2.5-0.4-4.2-1.1-5.1c-0.8-0.9-2-1.4-3.7-1.4c-2.1,0-3.7,0.7-4.8,2.2v16.5h-5.2V85.1h4.2l0.4,2c1.8-1.6,3.8-2.4,6.1-2.4
		c3.2,0,5.6,1.3,7.2,3.8c0.5-1,1.5-1.9,2.9-2.7c1.4-0.7,3-1.1,4.9-1.1c3,0,5.2,0.9,6.7,2.8c1.5,1.9,2.3,4.4,2.3,7.8V107.8z"/>
	<path class="st0" d="M150.2,81.2H145v-5.3h5.2V81.2z M150.2,107.8H145V85.1h5.2V107.8z"/>
	<path class="st0" d="M175.8,107.8h-5.2V95.5c0-2.2-0.4-3.9-1.2-4.9c-0.8-1-2-1.6-3.8-1.6c-2.1,0-3.8,0.7-4.9,2.2v16.5h-5.2V85.1
		h4.7l0.2,1.7c1.8-1.4,3.7-2.1,5.8-2.1c6.4,0,9.5,3.6,9.5,10.8V107.8z"/>
	<path class="st0" d="M190.1,119.2c-1.8,0-3.3-0.2-4.7-0.5c-1.3-0.4-2.5-0.9-3.3-1.5c-0.9-0.6-1.6-1.3-2-2.1
		c-0.5-0.8-0.7-1.7-0.7-2.6c0-2.2,1.3-3.9,3.8-5.1c-1.4-0.8-2.1-1.8-2.1-3.2c0-1.4,0.8-2.4,2.4-3.2c-2.4-1.7-3.6-4.1-3.6-7.4
		c0-1.3,0.2-2.5,0.6-3.6c0.4-1.1,1-2.1,1.8-2.9c0.8-0.8,1.8-1.4,2.9-1.9s2.4-0.7,3.9-0.7c2,0,3.8,0.5,5.3,1.5
		c1.5-0.7,3.2-1.1,5.1-1.1h1.1l-0.4,3.3h-1.7c-0.5,0-1.1,0-1.7,0.1c1.1,1.5,1.6,3.2,1.6,5.1c0,1.2-0.2,2.4-0.6,3.4
		c-0.4,1.1-1,2-1.8,2.9c-0.8,0.8-1.8,1.5-2.9,1.9c-1.1,0.5-2.4,0.7-3.9,0.7c-0.9,0-1.8-0.1-2.7-0.3c-0.5,0.2-0.7,0.5-0.7,0.9
		c0,0.3,0.1,0.5,0.3,0.7c0.2,0.2,0.5,0.4,1,0.5c0.5,0.2,1.1,0.3,1.9,0.4c0.8,0.1,1.8,0.3,2.9,0.4c1,0.2,2,0.4,3.1,0.6
		c1.1,0.2,2,0.6,2.9,1.1c0.9,0.5,1.6,1.1,2.2,1.9c0.6,0.8,0.9,1.8,1,3.1c0,2.2-1,4-2.9,5.3C196.3,118.6,193.6,119.2,190.1,119.2z
		 M190.3,109.1l-3.2-0.5c-1,0.3-1.8,0.7-2.4,1.3c-0.6,0.6-0.9,1.3-0.9,2.1c0,1,0.5,1.9,1.6,2.5c1.1,0.6,2.6,0.9,4.5,0.9
		c1.9,0,3.5-0.3,4.6-0.9c1.2-0.6,1.8-1.4,1.8-2.4c0-0.9-0.5-1.5-1.6-2C193.8,109.7,192.3,109.4,190.3,109.1z M189.1,88.6
		c-1.5,0-2.6,0.5-3.4,1.4c-0.8,0.9-1.2,2.1-1.2,3.7s0.4,2.8,1.2,3.7c0.8,0.9,1.9,1.4,3.4,1.4c1.5,0,2.6-0.5,3.4-1.4
		c0.8-0.9,1.2-2.2,1.2-3.7c0-1.6-0.4-2.8-1.2-3.7C191.7,89.1,190.6,88.6,189.1,88.6z"/>
	<path class="st0" d="M80.9,163.3c-2.3,0-4.4-0.2-6.2-0.6c-1.9-0.4-3.3-1-4.3-1.6l0.7-6.2c1,0.9,2.4,1.7,4.1,2.3
		c1.7,0.6,3.7,0.9,5.9,0.9c4.2,0,6.3-1.3,6.3-3.9c0-1-0.3-1.8-0.9-2.5c-0.6-0.7-1.3-1.3-2.1-1.7c-0.8-0.5-1.7-0.8-2.5-1.1
		c-0.9-0.3-1.6-0.5-2.1-0.7c-1.2-0.4-2.4-0.8-3.5-1.2c-1.2-0.4-2.2-1-3.2-1.6c-0.9-0.6-1.7-1.4-2.2-2.4c-0.6-1-0.8-2.2-0.8-3.6
		c0-1.1,0.2-2.2,0.6-3.3c0.4-1.1,1-2.1,1.9-3.1s2.1-1.7,3.6-2.3c1.5-0.6,3.3-0.9,5.5-0.9c1,0,2,0.1,3,0.2c1,0.1,2,0.3,2.9,0.5
		c0.9,0.2,1.7,0.5,2.5,0.8c0.7,0.3,1.3,0.6,1.8,0.8l-0.5,5.6c-3.6-1.9-6.7-2.8-9.3-2.8c-0.8,0-1.6,0.1-2.3,0.2
		c-0.7,0.1-1.4,0.4-2,0.7c-0.6,0.3-1.1,0.7-1.4,1.2c-0.4,0.5-0.5,1.1-0.5,1.7c0,0.9,0.3,1.7,0.9,2.2c0.6,0.5,1.4,1,2.5,1.4
		c1.1,0.4,2.3,0.8,3.7,1.3c1.4,0.4,3,1,4.7,1.7c0.6,0.2,1.3,0.6,2,1c0.7,0.4,1.4,1,2,1.6c0.6,0.7,1.1,1.4,1.5,2.3
		c0.4,0.9,0.6,1.9,0.6,3.1c0,0.9-0.1,1.9-0.3,3.1c-0.2,1.1-0.8,2.2-1.6,3.2c-0.8,1-2.1,1.8-3.7,2.5C86,162.9,83.8,163.3,80.9,163.3z
		"/>
	<path class="st0" d="M96.1,151.3c0-1.6,0.3-3.2,0.8-4.6c0.5-1.4,1.3-2.7,2.3-3.7c1-1.1,2.2-1.9,3.6-2.5c1.4-0.6,3-0.9,4.7-0.9
		c1.7,0,3.3,0.3,4.7,0.9c1.4,0.6,2.6,1.4,3.6,2.5c1,1.1,1.8,2.3,2.3,3.7c0.5,1.4,0.8,3,0.8,4.6c0,1.6-0.3,3.2-0.8,4.6
		c-0.5,1.4-1.3,2.7-2.3,3.7c-1,1.1-2.2,1.9-3.6,2.5c-1.4,0.6-3,0.9-4.7,0.9c-1.8,0-3.4-0.3-4.8-0.9c-1.4-0.6-2.6-1.4-3.6-2.5
		c-1-1.1-1.8-2.3-2.3-3.7C96.3,154.5,96.1,153,96.1,151.3z M101.4,151.3c0,2.3,0.5,4.1,1.6,5.4c1.1,1.3,2.6,2,4.5,2
		c1.9,0,3.4-0.7,4.5-2c1.1-1.3,1.6-3.1,1.6-5.4c0-2.3-0.5-4.1-1.6-5.4c-1.1-1.3-2.6-2-4.5-2c-1.9,0-3.4,0.7-4.5,2
		C101.9,147.2,101.4,149,101.4,151.3z"/>
	<path class="st0" d="M121.6,151.3c0-1.6,0.3-3.2,0.8-4.6c0.5-1.4,1.3-2.7,2.3-3.7c1-1.1,2.2-1.9,3.6-2.5c1.4-0.6,3-0.9,4.7-0.9
		c1.7,0,3.3,0.3,4.7,0.9c1.4,0.6,2.6,1.4,3.6,2.5c1,1.1,1.8,2.3,2.3,3.7c0.5,1.4,0.8,3,0.8,4.6c0,1.6-0.3,3.2-0.8,4.6
		c-0.5,1.4-1.3,2.7-2.3,3.7c-1,1.1-2.2,1.9-3.6,2.5c-1.4,0.6-3,0.9-4.7,0.9c-1.8,0-3.4-0.3-4.8-0.9c-1.4-0.6-2.6-1.4-3.6-2.5
		c-1-1.1-1.8-2.3-2.3-3.7C121.8,154.5,121.6,153,121.6,151.3z M126.9,151.3c0,2.3,0.5,4.1,1.6,5.4c1.1,1.3,2.6,2,4.5,2
		c1.9,0,3.4-0.7,4.5-2c1.1-1.3,1.6-3.1,1.6-5.4c0-2.3-0.5-4.1-1.6-5.4c-1.1-1.3-2.6-2-4.5-2c-1.9,0-3.4,0.7-4.5,2
		C127.4,147.2,126.9,149,126.9,151.3z"/>
	<path class="st0" d="M168.6,162.6h-5.2v-12.3c0-2.2-0.4-3.9-1.2-4.9c-0.8-1-2-1.6-3.8-1.6c-2.1,0-3.8,0.7-4.9,2.2v16.5h-5.2v-22.7
		h4.7l0.2,1.7c1.8-1.4,3.7-2.1,5.8-2.1c6.4,0,9.5,3.6,9.5,10.8V162.6z"/>
	<path class="st0" d="M179.6,128.4l-1.1,25.1H175l-1.1-25.1H179.6z M179.3,162.6h-5.1v-5.1h5.1V162.6z"/>
</g>
</svg>
